HIERARCHY
ROOT Hips
{
	OFFSET -40.819462 106.995209 20.358196
	CHANNELS 6 Xposition Yposition Zposition Xrotation Yrotation Zrotation
	JOINT Chest
	{
		OFFSET -2.243515 13.458115 -0.003242
		CHANNELS 3 Xrotation Yrotation Zrotation
		JOINT Chest2
		{
			OFFSET -6.517166 20.410065 0.150246
			CHANNELS 3 Xrotation Yrotation Zrotation
			JOINT Chest3
			{
				OFFSET -3.583691 14.191833 2.927271
				CHANNELS 3 Xrotation Yrotation Zrotation
				JOINT Neck
				{
					OFFSET -4.085640 16.745712 1.226639
					CHANNELS 3 Xrotation Yrotation Zrotation
					JOINT Head
					{
						OFFSET -2.880466 10.071899 0.295557
						CHANNELS 3 Xrotation Yrotation Zrotation
						End Site
						{
							OFFSET -2.869637 10.072617 0.367834
						}
					}
				}
				JOINT LeftCollar
				{
					OFFSET -7.690155 11.889236 -1.145456
					CHANNELS 3 Xrotation Yrotation Zrotation
					JOINT LeftUpArm
					{
						OFFSET -13.391678 -4.302063 10.519245
						CHANNELS 3 Xrotation Yrotation Zrotation
						JOINT LeftLowArm
						{
							OFFSET -26.001617 -21.071915 4.429276
							CHANNELS 3 Xrotation Yrotation Zrotation
							JOINT LeftHand
							{
								OFFSET -4.705414 -25.773659 -14.646666
								CHANNELS 3 Xrotation Yrotation Zrotation
								End Site
								{
									OFFSET -1.028419 -5.632988 -3.201101
								}
							}
						}
					}
				}
				JOINT RightCollar
				{
					OFFSET 0.331882 13.955658 -2.634054
					CHANNELS 3 Xrotation Yrotation Zrotation
					JOINT RightUpArm
					{
						OFFSET 15.417191 5.205490 6.611309
						CHANNELS 3 Xrotation Yrotation Zrotation
						JOINT RightLowArm
						{
							OFFSET 18.147232 27.977997 -5.257715
							CHANNELS 3 Xrotation Yrotation Zrotation
							JOINT RightHand
							{
								OFFSET -4.542414 29.332977 4.460661
								CHANNELS 3 Xrotation Yrotation Zrotation
								End Site
								{
									OFFSET -0.992796 6.411011 0.974928
								}
							}
						}
					}
				}
			}
		}
	}
	JOINT LeftUpLeg
	{
		OFFSET -9.743263 -1.624039 1.688341
		CHANNELS 3 Xrotation Yrotation Zrotation
		JOINT LeftLowLeg
		{
			OFFSET -34.200611 -29.926102 -13.369203
			CHANNELS 3 Xrotation Yrotation Zrotation
			JOINT LeftFoot
			{
				OFFSET 3.151955 -41.884483 15.372817
				CHANNELS 3 Xrotation Yrotation Zrotation
				JOINT LeftToe
				{
					OFFSET -9.816208 -20.348473 -7.010090
					CHANNELS 3 Xrotation Yrotation Zrotation
					End Site
					{
						OFFSET -14.253731 -8.582763 -16.814461
					}
				}
			}
		}
	}
	JOINT RightUpLeg
	{
		OFFSET 9.743299 1.623840 -1.688341
		CHANNELS 3 Xrotation Yrotation Zrotation
		JOINT RightLowLeg
		{
			OFFSET -1.654898 -46.675854 -7.914420
			CHANNELS 3 Xrotation Yrotation Zrotation
			JOINT RightFoot
			{
				OFFSET -10.632774 -41.850971 11.662763
				CHANNELS 3 Xrotation Yrotation Zrotation
				JOINT RightToe
				{
					OFFSET 5.412201 -15.614431 -16.924961
					CHANNELS 3 Xrotation Yrotation Zrotation
					End Site
					{
						OFFSET 10.257624 -1.063538 -21.288639
					}
				}
			}
		}
	}
}
MOTION
Frames: 5
Frame Time: 0.033333
24.007244 96.518623 17.967590 15.489600 154.648501 -13.277370 -25.691678 -6.639183 -3.983371 -1.406958 -0.511618 0.207267 7.779649 2.184597 7.684280 1.806388 -0.802876 -0.544683 0.000002 -0.000001 0.000001 4.535106 -25.464451 21.163778 23.002325 -29.248666 18.918536 -20.744359 41.852015 -46.827702 0.000003 0.000000 0.000001 -17.346789 21.606209 -11.939024 -7.949107 58.346126 -77.195959 -29.197945 9.000225 -28.406813 -0.000002 0.000006 0.000001 17.713643 -7.104945 27.753179 -25.607679 16.370628 -33.561572 29.266322 -22.508484 10.670674 0.000002 -0.000002 -0.000001 38.690665 5.660171 5.780787 -45.370659 5.101576 19.728711 16.883939 19.927104 -8.638253 0.000002 0.000001 -0.000000 
25.287235 96.432556 17.869509 15.066516 154.681259 -12.888809 -25.837906 -6.685592 -3.996213 -0.544605 -0.422550 -0.436297 6.986689 2.402524 7.869287 0.758535 -2.461253 -1.978355 0.000001 -0.000001 -0.000001 4.130074 -25.112587 20.390176 23.249909 -28.863929 19.935386 -20.626300 42.414464 -47.645228 0.000000 0.000000 0.000003 -17.681273 21.892445 -11.556991 -8.200518 58.958384 -76.885910 -28.828897 9.004873 -28.867224 0.000001 0.000006 0.000003 18.374199 -7.223803 28.091330 -26.679206 16.626323 -32.160222 29.157104 -21.682768 8.434318 0.000004 0.000001 -0.000002 39.494056 5.868347 6.014563 -46.407877 5.047555 20.218244 17.229963 20.245799 -8.908329 0.000000 0.000003 -0.000001 
26.708065 96.389496 17.755596 14.946339 154.307716 -13.066630 -25.635556 -6.574834 -4.427011 -2.309979 -0.631159 0.743037 8.650672 3.063969 6.679508 -0.102448 -3.861605 -3.747292 0.000004 -0.000001 0.000001 3.717690 -24.297992 19.932073 23.268399 -28.386524 20.780844 -21.182056 42.497133 -47.447579 0.000004 0.000000 0.000003 -18.103242 21.921239 -10.598432 -8.567026 60.178488 -76.294914 -28.693877 8.802315 -29.799419 -0.000003 0.000005 0.000004 18.852251 -7.152233 29.975928 -26.572825 16.477971 -31.875636 28.379974 -20.393987 5.696000 0.000003 0.000001 -0.000003 39.084962 6.165534 7.775025 -45.855298 4.855749 20.562119 17.410019 21.866736 -10.291372 0.000001 0.000003 0.000001 
28.183407 96.399658 17.700874 15.785097 154.342645 -12.548439 -25.590617 -6.341551 -5.470786 -1.446938 -0.606035 -0.019353 7.465521 4.447214 7.206930 0.379433 -5.600536 -6.332414 -0.000000 -0.000001 0.000001 3.459222 -24.643321 19.079951 22.954307 -28.335214 20.313737 -21.474139 42.362271 -46.692198 0.000001 -0.000001 0.000002 -18.265430 22.077017 -10.554067 -10.185297 61.526105 -73.376470 -29.082898 8.716385 -29.368700 -0.000003 -0.000001 -0.000002 19.772573 -7.194387 31.184499 -26.952541 16.718915 -31.487459 28.894296 -19.743179 3.403564 0.000004 0.000004 -0.000001 40.443644 6.549529 8.357549 -46.204874 4.891193 20.656717 17.118600 22.506324 -11.034715 -0.000000 -0.000004 -0.000001 
29.589825 96.450058 17.657228 14.804698 155.327886 -11.986848 -27.138850 -6.662496 -5.929074 -1.458001 -0.722306 -0.166214 7.784111 4.775036 6.997701 0.300171 -6.804140 -8.065163 -0.000001 0.000001 0.000001 3.001292 -24.865345 18.433087 22.537514 -29.287236 18.830652 -22.042339 41.849184 -46.097633 0.000005 -0.000003 -0.000001 -18.775049 22.188160 -10.196154 -12.007399 62.968600 -70.531867 -29.609854 7.974826 -29.063596 -0.000000 0.000003 0.000001 19.426048 -6.916915 33.339212 -26.955625 17.070060 -32.947907 29.665284 -19.969200 3.341752 0.000001 0.000004 -0.000001 39.733925 6.630606 9.756174 -45.824023 5.094201 20.273412 16.247186 22.813897 -11.345230 -0.000001 -0.000001 0.000001 
